<?xml version="1.0" encoding="iso-8859-1"?>
<!-- Generator: Adobe Illustrator 19.0.0, SVG Export Plug-In . SVG Version: 6.00 Build 0)  -->
<svg version="1.1" id="Layer_1" xmlns="http://www.w3.org/2000/svg" xmlns:xlink="http://www.w3.org/1999/xlink" x="0px" y="0px"
	 viewBox="0 0 512 512" style="enable-background:new 0 0 512 512;" xml:space="preserve">
<polygon style="fill:#327CCF;" points="173.125,8 59.733,8 153.587,205.333 266.978,205.333 "/>
<polygon style="fill:#38ABEC;" points="135.328,8 97.531,8 191.385,205.333 229.182,205.333 "/>
<polygon style="fill:#327CCF;" points="338.875,8 244.514,206.4 357.906,206.4 452.267,8 "/>
<polygon style="fill:#38ABEC;" points="376.672,8 282.311,206.4 320.109,206.4 414.469,8 "/>
<circle style="fill:#FDD349;" cx="256" cy="333.333" r="170.667"/>
<circle style="fill:#FF8B1B;" cx="256" cy="333.333" r="145.067"/>
<circle style="fill:#FDE265;" cx="256" cy="333.333" r="128"/>
<path style="fill:#FDD349;" d="M153.6,333.333c0-66.372,50.518-120.942,115.2-127.364c-4.21-0.418-8.48-0.636-12.8-0.636
	c-70.692,0-128,57.308-128,128s57.308,128,128,128c4.32,0,8.59-0.218,12.8-0.636C204.118,454.275,153.6,399.706,153.6,333.333z"/>
<polygon style="fill:#FF8B1B;" points="256,262.306 274.13,318.106 332.8,318.106 285.336,352.591 303.465,408.389 256,373.904 
	208.535,408.389 226.665,352.591 179.2,318.106 237.87,318.106 "/>
<g>
	<path style="fill:#FCB82D;" d="M460.8,154.133c0,18.851,15.282,34.133,34.133,34.133c-18.851,0-34.133,15.282-34.133,34.133
		c0-18.851-15.282-34.133-34.133-34.133C445.518,188.267,460.8,172.985,460.8,154.133z"/>
	<path style="fill:#FCB82D;" d="M51.2,435.733c0,18.851,15.282,34.133,34.133,34.133C66.482,469.867,51.2,485.149,51.2,504
		c0-18.851-15.282-34.133-34.133-34.133C35.918,469.867,51.2,454.585,51.2,435.733z"/>
</g>
<path d="M399.826,241.07c-3.824,2.212-5.132,7.106-2.918,10.931c14.236,24.608,21.759,52.733,21.759,81.332
	C418.667,423.028,345.695,496,256,496S93.333,423.028,93.333,333.333S166.305,170.667,256,170.667
	c47.584,0,92.643,20.751,123.62,56.933c2.835,3.311,7.969,3.709,11.28,0.874c3.311-2.835,3.709-7.969,0.874-11.28
	c-6.317-7.377-13.168-14.167-20.469-20.339l88.187-185.419C461.973,6.214,458.032,0,452.267,0H338.875
	c-3.088,0-5.899,1.776-7.225,4.564l-71.418,150.16c-1.409-0.033-2.819-0.058-4.233-0.058c-1.415,0-2.826,0.021-4.234,0.053
	L180.35,4.564C179.024,1.776,176.212,0,173.125,0H59.733c-5.766,0-9.707,6.214-7.225,11.436l88.227,185.503
	c-38.752,32.8-63.403,81.769-63.403,136.395C77.333,431.851,157.484,512,256,512s178.667-80.149,178.667-178.667
	c0-31.409-8.268-62.304-23.909-89.344C408.544,240.165,403.651,238.858,399.826,241.07z M358.33,186.881
	c-4.999-3.494-10.161-6.731-15.472-9.686L419.524,16h20.079L358.33,186.881z M401.806,16l-73.27,154.054
	c-5.539-2.461-11.203-4.642-16.974-6.53L381.726,16H401.806z M343.93,16h20.079l-68.099,143.184
	c-6.099-1.396-12.289-2.473-18.546-3.225L343.93,16z M234.633,155.949c-6.288,0.753-12.478,1.826-18.549,3.217L147.993,16h20.079
	L234.633,155.949z M130.274,16l70.163,147.523c-5.791,1.9-11.453,4.084-16.967,6.543L110.194,16H130.274z M72.397,16h20.079
	l76.687,161.238c-5.328,2.976-10.489,6.214-15.465,9.701L72.397,16z"/>
<path d="M174.379,442.127c23.689,17.798,51.911,27.206,81.621,27.206c74.991,0,136-61.009,136-136s-61.009-136-136-136
	s-136,61.009-136,136c0,29.707,9.406,57.929,27.203,81.616c2.653,3.532,7.667,4.244,11.201,1.59
	c3.533-2.654,4.244-7.668,1.59-11.201C144.297,384.445,136,359.546,136,333.333c0-66.169,53.833-120,120-120s120,53.831,120,120
	s-53.833,120-120,120c-26.214,0-51.116-8.299-72.009-23.998c-3.533-2.654-8.548-1.941-11.202,1.59
	C170.135,434.458,170.848,439.473,174.379,442.127z"/>
<path d="M340.409,315.633c-1.071-3.296-4.143-5.527-7.609-5.527h-52.858l-16.334-50.271c-1.059-3.259-4.182-5.527-7.609-5.527
	c-3.426,0-6.549,2.269-7.609,5.527l-16.334,50.271H179.2c-3.373,0-6.457,2.197-7.558,5.383c-1.138,3.291,0.038,7.041,2.857,9.088
	l42.763,31.069l-16.334,50.271c-1.024,3.152,0.052,6.704,2.656,8.755c2.782,2.192,6.789,2.271,9.654,0.189L256,383.792
	l42.763,31.069c3.006,2.183,7.233,1.975,10.012-0.49c2.355-2.09,3.271-5.458,2.299-8.454l-16.334-50.271l42.763-31.069
	C340.306,322.54,341.479,318.929,340.409,315.633z M280.634,346.118c-2.804,2.037-3.978,5.648-2.907,8.944l10.521,32.382
	l-27.546-20.013c-2.772-2.015-6.631-2.015-9.404,0l-27.546,20.013l10.521-32.382c1.071-3.296-0.102-6.907-2.907-8.944
	l-27.546-20.014h34.049c3.466,0,6.538-2.231,7.609-5.527L256,288.195l10.522,32.382c1.071,3.296,4.143,5.527,7.609,5.527h34.049
	L280.634,346.118z"/>
<path d="M494.933,180.267c-14.411,0-26.133-11.724-26.133-26.133c0-4.418-3.581-8-8-8c-4.419,0-8,3.582-8,8
	c0,14.41-11.723,26.133-26.133,26.133c-4.419,0-8,3.582-8,8s3.581,8,8,8c14.411,0,26.133,11.724,26.133,26.133c0,4.418,3.581,8,8,8
	c4.419,0,8-3.582,8-8c0-14.41,11.723-26.133,26.133-26.133c4.419,0,8-3.582,8-8S499.353,180.267,494.933,180.267z M460.8,197.725
	c-2.631-3.629-5.829-6.827-9.458-9.458c3.629-2.631,6.827-5.828,9.458-9.458c2.631,3.629,5.829,6.827,9.458,9.458
	C466.629,190.898,463.431,194.095,460.8,197.725z"/>
<path d="M85.333,461.867c-14.411,0-26.133-11.724-26.133-26.133c0-4.418-3.581-8-8-8s-8,3.582-8,8
	c0,14.41-11.723,26.133-26.133,26.133c-4.419,0-8,3.582-8,8c0,4.418,3.581,8,8,8C31.477,477.867,43.2,489.59,43.2,504
	c0,4.418,3.581,8,8,8s8-3.582,8-8c0-14.41,11.723-26.133,26.133-26.133c4.419,0,8-3.582,8-8
	C93.333,465.449,89.753,461.867,85.333,461.867z M51.2,479.325c-2.631-3.629-5.829-6.827-9.458-9.458
	c3.629-2.632,6.827-5.828,9.458-9.458c2.631,3.629,5.829,6.827,9.458,9.458C57.029,472.498,53.831,475.695,51.2,479.325z"/>
<g>
</g>
<g>
</g>
<g>
</g>
<g>
</g>
<g>
</g>
<g>
</g>
<g>
</g>
<g>
</g>
<g>
</g>
<g>
</g>
<g>
</g>
<g>
</g>
<g>
</g>
<g>
</g>
<g>
</g>
</svg>
