<?xml version="1.0" encoding="iso-8859-1"?>
<!-- Generator: Adobe Illustrator 19.0.0, SVG Export Plug-In . SVG Version: 6.00 Build 0)  -->
<svg version="1.1" id="Layer_1" xmlns="http://www.w3.org/2000/svg" xmlns:xlink="http://www.w3.org/1999/xlink" x="0px" y="0px"
	 viewBox="0 0 512 512" style="enable-background:new 0 0 512 512;" xml:space="preserve">
<polygon style="fill:#59AAE8;" points="371.409,271.529 371.409,504.376 254.389,465.162 140.592,504.376 140.592,271.529 "/>
<polygon style="fill:#285493;" points="195.792,271.529 195.792,485.355 254.389,465.162 310.656,484.017 310.656,271.529 "/>
<g style="opacity:0.2;">
	<path d="M140.592,269.176v77.16c32.98,22.171,72.682,35.113,115.409,35.113s82.429-12.941,115.409-35.113v-77.16H140.592z"/>
</g>
<path style="fill:#EF403C;" d="M172.232,29.805C196.53,15.021,225.52,7.624,256,7.624c93.366,0,169.055,75.688,169.055,169.055
	S349.367,345.734,256,345.734S86.946,270.045,86.946,176.679c0-39.177,13.326-75.24,35.692-103.906
	C122.638,72.772,142.412,47.95,172.232,29.805z"/>
<circle style="fill:#F2F2F2;" cx="256.003" cy="176.68" r="130.467"/>
<polygon style="fill:#EF403C;" points="256,105.548 279.757,147.069 326.589,156.834 294.44,192.258 299.626,239.814 256,220.186 
	212.374,239.814 217.561,192.258 185.412,156.834 232.243,147.069 "/>
<path style="opacity:0.14;fill:#DF2318;enable-background:new    ;" d="M349.146,35.592c17.67,26.71,27.968,58.723,27.968,93.146
	c0,93.366-75.688,169.054-169.055,169.054c-34.423,0-66.437-10.298-93.146-27.968c30.256,45.736,82.144,75.907,141.087,75.907
	c93.366,0,169.055-75.689,169.055-169.055C425.055,117.735,394.882,65.848,349.146,35.592z"/>
<path d="M256.001,314.773c76.145,0,138.094-61.949,138.094-138.094S332.146,38.584,256.001,38.584s-138.095,61.95-138.095,138.095
	S179.855,314.773,256.001,314.773z M256.001,53.833c67.737,0,122.845,55.108,122.845,122.846s-55.108,122.845-122.845,122.845
	c-67.738,0-122.846-55.108-122.846-122.845S188.263,53.833,256.001,53.833z"/>
<path d="M432.678,176.679C432.678,79.258,353.421,0,256.001,0c-30.74,0-61.016,8.018-87.553,23.186
	c-3.657,2.089-4.925,6.747-2.836,10.403c2.09,3.656,6.747,4.924,10.403,2.836c24.237-13.854,51.896-21.176,79.987-21.176
	c89.013,0,161.429,72.417,161.429,161.43s-72.416,161.429-161.429,161.429s-161.43-72.417-161.43-161.429
	c0-35.616,11.803-69.949,34.134-99.288c3.824-5.024,12.098-14.223,17.858-19.389c3.135-2.812,3.396-7.631,0.585-10.766
	c-2.813-3.134-7.633-3.397-10.766-0.585c-6.491,5.822-15.482,15.82-19.81,21.505c-24.368,32.017-37.249,69.544-37.249,108.524
	c0,49.632,20.58,94.542,53.645,126.667v201.03c0,2.464,1.191,4.777,3.198,6.207c1.309,0.933,2.86,1.417,4.427,1.417
	c0.834,0,1.673-0.137,2.482-0.416l111.348-38.369l114.563,38.391c2.326,0.779,4.885,0.391,6.876-1.04
	c1.99-1.432,3.171-3.736,3.171-6.189V303.346C412.099,271.221,432.678,226.311,432.678,176.679z M148.215,316.568
	c12.178,9.404,25.608,17.258,40,23.259c-0.03,0.275-0.048,0.553-0.048,0.837v139.254l-39.952,13.767L148.215,316.568
	L148.215,316.568z M363.785,493.78l-45.505-15.249V368.592c0-4.211-3.413-7.624-7.624-7.624c-4.212,0-7.624,3.414-7.624,7.624
	v104.829l-46.22-15.488c-1.593-0.535-3.319-0.528-4.906,0.021l-48.489,16.709V345.367c16.617,5.191,34.28,7.99,52.585,7.99
	c40.545,0,77.935-13.737,107.784-36.789V493.78z"/>
<path d="M209.61,194.842l-4.814,44.146c-0.296,2.718,0.885,5.387,3.099,6.994c2.214,1.608,5.117,1.907,7.609,0.785l40.498-18.221
	l40.497,18.221c0.999,0.449,2.066,0.671,3.127,0.671c1.585,0,3.157-0.493,4.482-1.456c2.213-1.608,3.394-4.277,3.099-6.995
	l-4.814-44.146l29.843-32.886c1.838-2.025,2.45-4.879,1.605-7.479c-0.845-2.601-3.018-4.55-5.696-5.108l-43.474-9.063
	l-22.052-38.545c-1.358-2.374-3.882-3.838-6.618-3.838c-2.734,0-5.26,1.464-6.618,3.838l-22.053,38.545l-43.474,9.063
	c-2.678,0.558-4.85,2.507-5.696,5.108c-0.845,2.6-0.233,5.455,1.605,7.479L209.61,194.842z M233.799,154.534
	c2.137-0.445,3.979-1.784,5.062-3.678L256,120.901l17.138,29.955c1.083,1.894,2.926,3.233,5.061,3.678l33.786,7.044l-23.193,25.558
	c-1.466,1.615-2.17,3.782-1.934,5.95l3.742,34.309l-31.473-14.161c-1.987-0.894-4.265-0.895-6.256,0l-31.474,14.161l3.742-34.309
	c0.236-2.168-0.468-4.335-1.934-5.95l-23.193-25.558L233.799,154.534z"/>
<g>
</g>
<g>
</g>
<g>
</g>
<g>
</g>
<g>
</g>
<g>
</g>
<g>
</g>
<g>
</g>
<g>
</g>
<g>
</g>
<g>
</g>
<g>
</g>
<g>
</g>
<g>
</g>
<g>
</g>
</svg>
