<?xml version="1.0" encoding="iso-8859-1"?>
<!-- Generator: Adobe Illustrator 19.0.0, SVG Export Plug-In . SVG Version: 6.00 Build 0)  -->
<svg version="1.1" id="Capa_1" xmlns="http://www.w3.org/2000/svg" xmlns:xlink="http://www.w3.org/1999/xlink" x="0px" y="0px"
	 viewBox="0 0 512 512" style="enable-background:new 0 0 512 512;" xml:space="preserve">
<g>
	<g>
		<path d="M454.883,460.082L377.252,325.62l25.19-12.131c2.061-0.992,3.557-2.868,4.066-5.098l8.919-39.08l24.992-31.339
			c1.427-1.787,1.961-4.127,1.451-6.357l-8.918-39.079l8.918-39.079c0.51-2.23-0.024-4.57-1.451-6.357l-24.992-31.339l-8.919-39.08
			c-0.509-2.23-2.005-4.106-4.066-5.098l-36.116-17.392l-24.992-31.338c-1.426-1.789-3.588-2.83-5.875-2.83h-40.084L259.26,2.629
			c-2.061-0.992-4.46-0.992-6.521,0L216.624,20.02H176.54c-2.286,0-4.449,1.041-5.874,2.83l-24.992,31.338L109.558,71.58
			c-2.061,0.992-3.557,2.868-4.066,5.098l-8.919,39.08l-24.993,31.34c-1.427,1.787-1.961,4.127-1.451,6.357l8.918,39.079
			l-8.918,39.079c-0.51,2.23,0.024,4.57,1.451,6.357l24.992,31.339l8.919,39.08c0.509,2.23,2.005,4.106,4.066,5.098l25.19,12.131
			L57.116,460.082c-3.277,5.677,2.125,12.715,8.454,11.016l47.489-12.725l12.726,47.49c1.694,6.322,10.486,7.495,13.766,1.813
			l81.198-140.64l31.992,15.405c2.043,0.984,4.477,0.984,6.521,0l31.991-15.405l81.199,140.64c3.28,5.681,12.072,4.512,13.766-1.813
			l12.726-47.49l47.489,12.725C452.757,472.795,458.162,465.761,454.883,460.082z M135.605,484.449l-9.974-37.225
			c-1.059-3.952-5.248-6.37-9.204-5.313l-37.223,9.974l68.437-118.538l23.025,28.871c1.426,1.789,3.588,2.83,5.874,2.83h28
			L135.605,484.449z M290.4,350.765L256,367.331l-34.4-16.565c-1.017-0.49-2.131-0.744-3.26-0.744h-38.18l-23.806-29.85
			c-0.703-0.883-1.597-1.596-2.614-2.085l-34.4-16.566l-8.496-37.224c-0.25-1.101-0.746-2.13-1.451-3.013l-23.806-29.851
			l8.496-37.223c0.252-1.101,0.252-2.243,0-3.345l-8.496-37.223l23.806-29.851c0.704-0.883,1.2-1.912,1.451-3.013l8.496-37.224
			l34.4-16.566c1.018-0.489,1.911-1.202,2.614-2.085l23.807-29.85h38.18c1.129,0,2.243-0.255,3.26-0.744L256,17.74l34.4,16.565
			c1.017,0.49,2.131,0.744,3.26,0.744h38.18l23.807,29.85c0.703,0.883,1.597,1.596,2.614,2.085l34.4,16.566l8.496,37.224
			c0.25,1.101,0.746,2.13,1.451,3.013l23.806,29.851l-8.496,37.223c-0.252,1.101-0.252,2.243,0,3.344l8.496,37.223l-23.806,29.851
			c-0.704,0.883-1.2,1.912-1.451,3.013l-8.496,37.224l-34.4,16.566c-1.018,0.489-1.911,1.202-2.614,2.085l-23.807,29.85h-38.18
			C292.531,350.021,291.417,350.274,290.4,350.765z M395.574,441.911c-3.954-1.064-8.146,1.366-9.204,5.313l-9.974,37.225
			L307.46,365.05h28.001c2.286,0,4.449-1.041,5.874-2.83l23.025-28.871l68.437,118.537L395.574,441.911z"/>
	</g>
</g>
<g>
	<g>
		<path d="M355.894,89.123c-2.984-2.886-7.742-2.802-10.625,0.183c-2.884,2.985-2.802,7.742,0.183,10.625
			c25.341,24.486,39.299,57.374,39.299,92.604c0,70.994-57.758,128.751-128.751,128.751s-128.751-57.758-128.751-128.751
			S185.006,63.784,256,63.784c21.145,0,42.109,5.235,60.626,15.137c3.66,1.959,8.214,0.577,10.17-3.082
			c1.958-3.659,0.577-8.213-3.082-10.17C303.026,54.603,279.609,48.754,256,48.754c-79.281,0-143.781,64.5-143.781,143.781
			S176.719,336.316,256,336.316s143.781-64.5,143.781-143.781C399.781,153.192,384.194,116.467,355.894,89.123z"/>
	</g>
</g>
<g>
	<g>
		<path d="M358.201,147.948l-24.047-32.063c-1.419-1.893-3.647-3.006-6.012-3.006H183.859c-2.365,0-4.593,1.113-6.012,3.006
			L153.8,147.948c-0.964,1.286-1.503,2.902-1.503,4.509v32.063c0,1.761,0.649,3.559,1.81,4.891l96.143,112.166
			c2.969,3.516,8.528,3.488,11.501,0l96.143-112.166c1.16-1.332,1.81-3.128,1.81-4.891v-32.063
			C359.704,150.85,359.166,149.234,358.201,147.948z M324.384,127.909l12.775,17.033h-29.307l-12.775-17.033H324.384z
			 M296.579,159.972v17.033h-81.159v-17.033H296.579z M235.71,127.909h40.579l12.775,17.033h-66.129L235.71,127.909z
			 M187.616,127.909h29.307l-12.775,17.033h-29.307L187.616,127.909z M167.327,159.972h33.065v17.033h-33.065V159.972z
			 M176.151,192.034h26.8l26.8,62.534L176.151,192.034z M256,277.663l-36.698-85.628h73.395L256,277.663z M282.248,254.568
			l26.8-62.534h26.8L282.248,254.568z M344.673,177.005h-33.065v-17.033h33.065V177.005z"/>
	</g>
</g>
<g>
	<g>
		<path d="M71.64,273.193c-11.611,0-24.548-19.957-24.548-48.595c0-4.151-3.364-7.515-7.515-7.515c-4.151,0-7.515,3.364-7.515,7.515
			c0,28.638-12.937,48.595-24.548,48.595c-4.151,0-7.515,3.364-7.515,7.515c0,4.151,3.364,7.515,7.515,7.515
			c11.611,0,24.548,19.957,24.548,48.595c0,4.151,3.364,7.515,7.515,7.515c4.151,0,7.515-3.364,7.515-7.515
			c0-28.638,12.937-48.595,24.548-48.595c4.151,0,7.515-3.364,7.515-7.515C79.155,276.556,75.791,273.193,71.64,273.193z
			 M39.577,299.063c-3.438-7.606-7.91-13.887-13.115-18.356c5.204-4.469,9.677-10.75,13.115-18.356
			c3.438,7.606,7.91,13.887,13.115,18.356C47.488,285.176,43.015,291.457,39.577,299.063z"/>
	</g>
</g>
<g>
	<g>
		<path d="M504.485,385.412c-8.961,0-16.532-11.242-16.532-24.548c0-4.151-3.364-7.515-7.515-7.515s-7.515,3.364-7.515,7.515
			c0,13.306-7.571,24.548-16.532,24.548c-4.151,0-7.515,3.364-7.515,7.515c0,4.151,3.364,7.515,7.515,7.515
			c8.962,0,16.532,11.242,16.532,24.548c0,4.151,3.364,7.515,7.515,7.515s7.515-3.364,7.515-7.515
			c0-13.306,7.571-24.548,16.532-24.548c4.151,0,7.515-3.364,7.515-7.515C512,388.776,508.636,385.412,504.485,385.412z
			 M480.438,399.382c-1.641-2.419-3.51-4.589-5.563-6.456c2.053-1.867,3.922-4.037,5.563-6.456c1.641,2.419,3.51,4.589,5.563,6.456
			C483.948,394.793,482.08,396.964,480.438,399.382z"/>
	</g>
</g>
<g>
	<g>
		<path d="M456.391,32.723c-8.961,0-16.532-11.242-16.532-24.548c0-4.151-3.364-7.515-7.515-7.515s-7.515,3.364-7.515,7.515
			c0,13.306-7.571,24.548-16.532,24.548c-4.151,0-7.515,3.364-7.515,7.515c0,4.151,3.364,7.515,7.515,7.515
			c8.962,0,16.532,11.242,16.532,24.548c0,4.151,3.364,7.515,7.515,7.515s7.515-3.364,7.515-7.515
			c0-13.306,7.571-24.548,16.532-24.548c4.151,0,7.515-3.364,7.515-7.515C463.906,36.087,460.542,32.723,456.391,32.723z
			 M432.344,46.692c-1.641-2.419-3.51-4.589-5.563-6.456c2.053-1.866,3.922-4.036,5.563-6.456c1.641,2.419,3.51,4.589,5.563,6.456
			C435.854,42.103,433.986,44.274,432.344,46.692z"/>
	</g>
</g>
<g>
</g>
<g>
</g>
<g>
</g>
<g>
</g>
<g>
</g>
<g>
</g>
<g>
</g>
<g>
</g>
<g>
</g>
<g>
</g>
<g>
</g>
<g>
</g>
<g>
</g>
<g>
</g>
<g>
</g>
</svg>
